<svg id="_20cm" data-name="20cm" xmlns="http://www.w3.org/2000/svg" width="2600" height="365" viewBox="0 0 2600 365">
  <defs>
    <style>
      .cls-1 {
        fill-rule: evenodd;
      }
    </style>
  </defs>
  <g id="_20cm-2" data-name="20cm">
    <path id="NIREEK" class="cls-1" d="M237.263,43.863v172.3L46.438,43.863v72.661L284.97,331.629V43.863H237.263ZM552.571,91.344L504.865,43.863V331.629h0l47.706-48.2V91.344ZM882.936,193.861c11.478-16.187,16.859-34.172,16.859-54.316,0-26.259-9.326-48.56-27.979-67.625-18.652-18.7-41.249-28.057-67.434-28.057h-125.9L703.23,86.668l5.381,5.4h95.771q19.37,0,33.359,14.028c9.684,9.353,14.347,20.5,14.347,33.453,0,13.309-4.663,24.82-14.347,34.172q-13.989,14.029-33.359,14.029l-42.684-.36,83.216,144.243H899.8L840.969,228.393Q866.256,218.14,882.936,193.861ZM1077.36,327.672v3.957h191.19v-48.2H1125.07Zm0-283.809,47.71,48.2h143.48v-48.2H1077.36Zm0,120.142v47.841h191.19V164.005H1077.36Zm355.12,163.667v3.957h191.19v-48.2H1480.19Zm0-283.809,47.71,48.2h143.48v-48.2H1432.48Zm0,120.142v47.841h191.19V164.005H1432.48Zm413.23,43.884,124.11,123.74ZM1969.82,43.863l-124.11,124.1h0Zm67.43,0h-67.43l-124.11,124.1h0l-20.09,20.144,20.09,19.783h0l124.11,123.74h67.43L1893.77,187.746Z"/>
    <path class="cls-1" d="M94.075,211.942H46.438V332.78l48.21-48.922Z"/>
    <path class="cls-1" d="M2404.16,43.276L2260.67,331.629h288.12Zm-0.58,108.78,66.58,131.227H2338.15Z"/>
  </g>
</svg>
