<svg xmlns="http://www.w3.org/2000/svg" width="2600" height="365" viewBox="0 0 2600 365">
  <defs>
    <style>
      .cls-1 {
        fill: #fff;
      }

      .cls-1, .cls-2 {
        fill-rule: evenodd;
      }

      .cls-2 {
        fill: #f14833;
      }
    </style>
  </defs>
  <path id="IREEK" class="cls-1" d="M510.145,91.344L462.438,43.863V331.629h0l47.707-48.2V91.344ZM840.509,193.861c11.478-16.187,16.859-34.172,16.859-54.316,0-26.259-9.326-48.56-27.978-67.625-18.652-18.7-41.25-28.057-67.435-28.057h-125.9L660.8,86.668l5.38,5.4h95.771q19.37,0,33.359,14.028c9.685,9.353,14.348,20.5,14.348,33.453,0,13.309-4.663,24.82-14.348,34.172q-13.989,14.029-33.359,14.029l-42.684-.36,83.217,144.243h54.88L798.542,228.393Q823.83,218.14,840.509,193.861ZM1034.93,327.672v3.957h191.19v-48.2H1082.64Zm0-283.809,47.71,48.2h143.48v-48.2H1034.93Zm0,120.142v47.841h191.19V164.005H1034.93Zm355.13,163.667v3.957h191.18v-48.2H1437.76Zm0-283.809,47.7,48.2h143.48v-48.2H1390.06Zm0,120.142v47.841h191.18V164.005H1390.06Zm413.22,43.884,124.11,123.74ZM1927.39,43.863l-124.11,124.1h0Zm67.43,0h-67.43l-124.11,124.1h0l-20.08,20.144,20.08,19.783h0l124.11,123.74h67.43L1851.35,187.746Z"/>
  <path id="N" class="cls-2" d="M237.366,43.456v172.3L46,43.456v72.662L285.208,331.224V43.456H237.366Z"/>
  <path class="cls-1" d="M94.075,211.942H46.438V332.78l48.21-48.922Z"/>
  <path class="cls-1" d="M2324.16,43.276L2180.67,331.629h288.12Zm-0.58,108.78,66.58,131.227H2258.15Z"/>
</svg>
