<svg width="720" height="100" viewBox="0 0 720 100" fill="none" xmlns="http://www.w3.org/2000/svg">
  <title>New Atlas logo</title>
  <g clip-path="url(#clip0)">
    <mask id="a" mask-type="alpha" maskUnits="userSpaceOnUse" x="-114" y="24" width="948" height="413">
      <path d="M359.6 435.1v1c130.6 0 248.9-22.9 334.5-60 42.9-18.5 77.6-40.6 101.6-65.2s37.4-51.8 37.4-80.4c0-28.6-13.3-55.8-37.4-80.3-36-37-96-68.3-171.6-90.4-75.6-22-166.6-35-264.5-35-130.6 0-248.9 23-334.6 60-42.8 18.6-77.5 40.7-101.6 65.3-24 24.7-37.4 51.8-37.4 80.4 0 28.6 13.4 55.8 37.4 80.4 36 36.9 96.1 68.2 171.7 90.3 75.5 22 166.5 35 264.5 35v-2c-130.4 0-248.4-23-333.8-60-42.7-18.4-77.2-40.4-101-64.7-23.7-24.3-36.8-51-36.8-79s13-54.6 36.8-79C-39.5 115 20.3 83.7 95.7 61.7s166.2-35 264-35c130.4 0 248.4 23 333.7 60 42.7 18.4 77.2 40.4 101 64.8 23.9 24.3 36.9 51 36.9 79s-13 54.6-36.9 79c-35.6 36.5-95.4 67.7-170.7 89.8-75.4 22-166.2 34.8-264 34.8v1z" fill="#4963AE"/>
    </mask>
    <g mask="url(#a)">
      <path fill="url(#paint0_linear)" d="M0 24h720v74H0z"/>
    </g>
    <path d="M219.5 4a1.3 1.3 0 01.7 1.3v49.1c0 .5-.2.8-1 .8h-8.6c-1 0-1.3-.3-1.3-1.3v-7.8c0-.9-.2-1.7-.8-2.4l-14.4-19.2-.3-.4-.4-.2-.1.3V54c0 .3 0 .6-.2 1-.2.1-.5.3-.8.3h-8.8a1.3 1.3 0 01-1-.7V4.7c0-.4.4-.7.6-.7h9.3c.5.2 1 .6 1.4 1A9893.2 9893.2 0 00209 24.7c.2.2.4.2.4-.1V5.4a1.3 1.3 0 01.8-1.4h9.4zm41.8 0a1.4 1.4 0 01.6 1.4v7c0 .9-.3 1.3-1.2 1.3h-18.6c-1 0-1.3.3-1.3 1.3v7.8c0 1 .3 1.3 1.3 1.3h16.5c1 0 1.4.3 1.4 1.4v6.9c0 .9-.4 1.2-1.3 1.2h-16.6c-1 0-1.3.4-1.3 1.4v9.3c0 1 .3 1.3 1.3 1.3h19c.4 0 .7 0 1 .3a1.1 1.1 0 01.3.7v7.6a1 1 0 01-.3.7 1 1 0 01-.7.3h-30.8a1 1 0 01-1-1V5.4a1.4 1.4 0 01.6-1.4h31zm60.4 0a1.4 1.4 0 01.7 1.4v7.5c0 3-.4 5.8-1.2 8.6l-8.7 32.4a1.6 1.6 0 01-1.7 1.3h-8.6a1.4 1.4 0 01-1.6-1.2 8631 8631 0 00-4.9-18h-.1l-.3.6-4.6 17.4a1.4 1.4 0 01-1.6 1.2h-8.8a1.4 1.4 0 01-1.5-1.1l-3.3-12.3-6.1-22.7c-.3-1.2-.5-2.4-.5-3.6V5.4a1.4 1.4 0 01.7-1.4h9.4a1.4 1.4 0 01.7 1.4v7.7c0 1.5.1 3 .3 4.4l2.6 11 2.3 9.7.2.6h.2l.1-.4.6-2.4 3.9-16.8c.3-1.2.6-2.4.7-3.7V5.4a1.3 1.3 0 01.7-1.4h8.8a1.4 1.4 0 01.7 1.4v8.3c0 1.3 0 2.6.3 3.8L304 30l2 8.4.2.6h.2l.2-.7 2.4-10.2 2-8.5c.3-1.2.5-2.5.6-3.7a225.4 225.4 0 00.2-11.2c.1-.3.3-.5.5-.6h9.5zm44.1 0a2.4 2.4 0 011.2 1.6l5.4 16 6.1 18c.5 1.4.7 2.9.7 4.4v10c0 .8-.3 1.2-1.1 1.2h-8.6a1 1 0 01-1.1-1.2v-8c0-1-.4-1.3-1.3-1.3h-13.3c-1 0-1.3.4-1.3 1.3v8c0 1-.3 1.2-1.3 1.2h-8.4a1 1 0 01-1.1-1V43.3c0-1.5.3-3 .9-4.4l5.3-15.9 6-17.7a2.2 2.2 0 011.2-1.4h10.7zm-5.3 13h-.1l-.3.4-1.6 5.3-3.6 11.7c-.2.7 0 1 .7 1h9.7c.7 0 .9-.3.7-1a5365.4 5365.4 0 00-5.5-17.5zM415 4a1.5 1.5 0 01.6 1.4v7.2c0 .8-.3 1.2-1.2 1.2h-9.7a1 1 0 00-1.1 1v39.6a1 1 0 01-1 .8h-9.2a1 1 0 01-1-.9V15.2c0-1.1-.3-1.4-1.5-1.4h-9.3c-1 0-1.4-.4-1.4-1.4v-7A1.3 1.3 0 01381 4h34zm18.1 0a1.4 1.4 0 01.7 1.4v38.8c0 .9.4 1.2 1.3 1.2H450c.4 0 .9.1 1.1.6.1.2.2.4.1.6V54c0 .8-.3 1.2-1.2 1.2h-26.2c-.9 0-1.2-.3-1.2-1.2V5.4a1.3 1.3 0 01.7-1.4h9.8zM481 4a2.2 2.2 0 011.1 1.5l11.5 34c.5 1.4.8 3 .8 4.5v10c0 .8-.4 1.3-1.4 1.3h-8.3c-.8 0-1.2-.3-1.2-1.2v-8c0-1-.4-1.3-1.3-1.3H469c-.9 0-1.2.4-1.2 1.3v8c0 .9-.4 1.2-1.3 1.2H458a1 1 0 01-1.2-1.2V43.8c0-1.6.3-3.2.8-4.7a25327.4 25327.4 0 0012-34.6c.1-.2.4-.4.7-.5h10.6zm-5.4 12.8l-.3.6-5.3 17c-.2.7 0 1 .7 1h9.8c.6 0 .8-.3.6-1a4297.6 4297.6 0 00-5.5-17.6zM527 4l1.9.3a8.6 8.6 0 017 7.4l.3 2.9v4a1 1 0 01-.3.8 1 1 0 01-.9.3h-8.5c-1 0-1.3-.4-1.3-1.3v-3.3c0-1.1-.6-1.8-1.8-1.8h-9.7c-1.2 0-1.8.6-1.8 1.8v5.5c0 1.2.4 1.7 1.6 2l14.5 3.7c1.5.3 3 .8 4.3 1.4a8 8 0 014.4 7.3v10a12 12 0 01-.9 4.6 8.5 8.5 0 01-6.8 5.3l-3 .3h-15.4a12 12 0 01-4.6-1 8.3 8.3 0 01-5-6.1 23 23 0 01-.5-3.7v-3.3c0-.8.4-1.2 1.2-1.2h8.6a1 1 0 011.2 1.2v3c0 1.2.5 1.8 1.8 1.8h10.6c1.2 0 1.8-.5 1.8-1.8v-6.3a1.7 1.7 0 00-.9-1.6l-.6-.2-13.8-3.6-3.4-1a8 8 0 01-5.8-6.5c-.2-.8-.2-1.6-.2-2.4v-9c0-1.7.4-3.4 1.3-4.9a8.9 8.9 0 016.8-4.4l1.2-.2H527z" fill="#5BB0E2"/>
    <mask id="b" mask-type="alpha" maskUnits="userSpaceOnUse" x="182" y="3" width="355" height="53">
      <path d="M219.5 4a1.3 1.3 0 01.7 1.3v49.1c0 .5-.2.8-1 .8h-8.6c-1 0-1.3-.3-1.3-1.3v-7.8c0-.9-.2-1.7-.8-2.4l-14.4-19.2-.3-.4-.4-.2-.1.3V54c0 .3 0 .6-.2 1-.2.1-.5.3-.8.3h-8.8a1.3 1.3 0 01-1-.7V4.7c0-.4.4-.7.6-.7h9.3c.5.2 1 .6 1.4 1A9893.2 9893.2 0 00209 24.7c.2.2.4.2.4-.1V5.4a1.3 1.3 0 01.8-1.4h9.4zm41.8 0a1.4 1.4 0 01.6 1.4v7c0 .9-.3 1.3-1.2 1.3h-18.6c-1 0-1.3.3-1.3 1.3v7.8c0 1 .3 1.3 1.3 1.3h16.5c1 0 1.4.3 1.4 1.4v6.9c0 .9-.4 1.2-1.3 1.2h-16.6c-1 0-1.3.4-1.3 1.4v9.3c0 1 .3 1.3 1.3 1.3h19c.4 0 .7 0 1 .3a1.1 1.1 0 01.3.7v7.6a1 1 0 01-.3.7 1 1 0 01-.7.3h-30.8a1 1 0 01-1-1V5.4a1.4 1.4 0 01.6-1.4h31zm60.4 0a1.4 1.4 0 01.7 1.4v7.5c0 3-.4 5.8-1.2 8.6l-8.7 32.4a1.6 1.6 0 01-1.7 1.3h-8.6a1.4 1.4 0 01-1.6-1.2 8631 8631 0 00-4.9-18h-.1l-.3.6-4.6 17.4a1.4 1.4 0 01-1.6 1.2h-8.8a1.4 1.4 0 01-1.5-1.1l-3.3-12.3-6.1-22.7c-.3-1.2-.5-2.4-.5-3.6V5.4a1.4 1.4 0 01.7-1.4h9.4a1.4 1.4 0 01.7 1.4v7.7c0 1.5.1 3 .3 4.4l2.6 11 2.3 9.7.2.6h.2l.1-.4.6-2.4 3.9-16.8c.3-1.2.6-2.4.7-3.7V5.4a1.3 1.3 0 01.7-1.4h8.8a1.4 1.4 0 01.7 1.4v8.3c0 1.3 0 2.6.3 3.8L304 30l2 8.4.2.6h.2l.2-.7 2.4-10.2 2-8.5c.3-1.2.5-2.5.6-3.7a225.4 225.4 0 00.2-11.2c.1-.3.3-.5.5-.6h9.5zm44.1 0a2.4 2.4 0 011.2 1.6l5.4 16 6.1 18c.5 1.4.7 2.9.7 4.4v10c0 .8-.3 1.2-1.1 1.2h-8.6a1 1 0 01-1.1-1.2v-8c0-1-.4-1.3-1.3-1.3h-13.3c-1 0-1.3.4-1.3 1.3v8c0 1-.3 1.2-1.3 1.2h-8.4a1 1 0 01-1.1-1V43.3c0-1.5.3-3 .9-4.4l5.3-15.9 6-17.7a2.2 2.2 0 011.2-1.4h10.7zm-5.3 13h-.1l-.3.4-1.6 5.3-3.6 11.7c-.2.7 0 1 .7 1h9.7c.7 0 .9-.3.7-1a5365.4 5365.4 0 00-5.5-17.5zM415 4a1.5 1.5 0 01.6 1.4v7.2c0 .8-.3 1.2-1.2 1.2h-9.7a1 1 0 00-1.1 1v39.6a1 1 0 01-1 .8h-9.2a1 1 0 01-1-.9V15.2c0-1.1-.3-1.4-1.5-1.4h-9.3c-1 0-1.4-.4-1.4-1.4v-7A1.3 1.3 0 01381 4h34zm18.1 0a1.4 1.4 0 01.7 1.4v38.8c0 .9.4 1.2 1.3 1.2H450c.4 0 .9.1 1.1.6.1.2.2.4.1.6V54c0 .8-.3 1.2-1.2 1.2h-26.2c-.9 0-1.2-.3-1.2-1.2V5.4a1.3 1.3 0 01.7-1.4h9.8zM481 4a2.2 2.2 0 011.1 1.5l11.5 34c.5 1.4.8 3 .8 4.5v10c0 .8-.4 1.3-1.4 1.3h-8.3c-.8 0-1.2-.3-1.2-1.2v-8c0-1-.4-1.3-1.3-1.3H469c-.9 0-1.2.4-1.2 1.3v8c0 .9-.4 1.2-1.3 1.2H458a1 1 0 01-1.2-1.2V43.8c0-1.6.3-3.2.8-4.7a25327.4 25327.4 0 0012-34.6c.1-.2.4-.4.7-.5h10.6zm-5.4 12.8l-.3.6-5.3 17c-.2.7 0 1 .7 1h9.8c.6 0 .8-.3.6-1a4297.6 4297.6 0 00-5.5-17.6zM527 4l1.9.3a8.6 8.6 0 017 7.4l.3 2.9v4a1 1 0 01-.3.8 1 1 0 01-.9.3h-8.5c-1 0-1.3-.4-1.3-1.3v-3.3c0-1.1-.6-1.8-1.8-1.8h-9.7c-1.2 0-1.8.6-1.8 1.8v5.5c0 1.2.4 1.7 1.6 2l14.5 3.7c1.5.3 3 .8 4.3 1.4a8 8 0 014.4 7.3v10a12 12 0 01-.9 4.6 8.5 8.5 0 01-6.8 5.3l-3 .3h-15.4a12 12 0 01-4.6-1 8.3 8.3 0 01-5-6.1 23 23 0 01-.5-3.7v-3.3c0-.8.4-1.2 1.2-1.2h8.6a1 1 0 011.2 1.2v3c0 1.2.5 1.8 1.8 1.8h10.6c1.2 0 1.8-.5 1.8-1.8v-6.3a1.7 1.7 0 00-.9-1.6l-.6-.2-13.8-3.6-3.4-1a8 8 0 01-5.8-6.5c-.2-.8-.2-1.6-.2-2.4v-9c0-1.7.4-3.4 1.3-4.9a8.9 8.9 0 016.8-4.4l1.2-.2H527z" fill="#5BB0E2"/>
    </mask>
    <g mask="url(#b)">
      <path d="M359.6 24.8c98 0 189 13 264.5 35v35.7H95.6V59.7c75.5-22 166.3-34.9 264-34.9z" fill="#4963AE"/>
    </g>
  </g>
  <defs>
    <linearGradient id="paint0_linear" x1="360" y1="24" x2="360" y2="98" gradientUnits="userSpaceOnUse">
      <stop stop-color="#BDE2F7"/>
      <stop offset=".5" stop-color="#BFE3F7"/>
      <stop offset="1" stop-color="#fff"/>
    </linearGradient>
    <clipPath id="clip0">
      <path fill="#fff" d="M0 0h720v100H0z"/>
    </clipPath>
  </defs>
</svg>
